<svg xmlns="http://www.w3.org/2000/svg" width="138" height="52" viewBox="0 0 138 52" fill="none"><g clip-path="url(#clip0_74_728)"><path d="M15.4946 51.538C11.4053 51.3701 8.05958 50.2133 5.44353 48.0649C4.94427 47.6545 3.75458 46.4239 3.35545 45.9049C2.29461 44.526 1.57337 43.1839 1.09232 41.6949C-0.387963 37.1114 0.373884 31.0968 3.27142 24.4959C5.75233 18.8447 9.58047 13.2398 16.2592 5.47704C17.2431 4.33477 20.1728 0.994141 20.1917 0.994141C20.1987 0.994141 20.0391 1.28007 19.8381 1.62825C18.1015 4.63518 16.6157 8.17704 15.8062 11.2433C14.5059 16.1635 14.6627 20.3858 16.2655 23.6598C17.3712 25.9154 19.2667 27.8691 21.3982 28.9491C25.1297 30.8391 30.5929 30.9955 37.2646 29.4066C37.724 29.2965 60.4856 23.0503 87.8463 15.5257C115.207 8.00042 137.597 1.8483 137.6 1.85337C137.608 1.85989 74.0336 29.982 41.0312 44.5715C35.8047 46.8814 34.407 47.4648 31.9499 48.3566C25.6689 50.6368 20.0426 51.7248 15.4946 51.538Z" fill="#ED1B24"></path></g><defs><clipPath id="clip0_74_728"><rect width="137.245" height="50.5638" fill="white" transform="translate(0.355469 0.995117)"></rect></clipPath></defs></svg>